<svg xmlns="http://www.w3.org/2000/svg" xmlns:xlink="http://www.w3.org/1999/xlink" style="isolation:isolate" width="2560" height="1280pt" viewBox="0 0 1920 1280"><defs><clipPath id="_clipPath_jhHa8ER8TLOu3VBd7ej4b8BSDfQ5Wy3X"><rect width="1920" height="1280"/></clipPath></defs><g clip-path="url(#_clipPath_jhHa8ER8TLOu3VBd7ej4b8BSDfQ5Wy3X)"><linearGradient id="_lgradient_12" x1=".204" x2="1.053" y1=".415" y2="1.009" gradientTransform="matrix(1057.351,0,0,736,-202.351,544)" gradientUnits="userSpaceOnUse"><stop offset="0%" stop-opacity="1" style="stop-color:#e64a19"/><stop offset="100%" stop-opacity="1" style="stop-color:#c62828"/></linearGradient><path fill="url(#_lgradient_12)" fill-rule="evenodd" d="M 326.325 544 L 855 1280 L -202.351 1280 L 326.325 544 Z"/><path fill="#222" fill-rule="evenodd" d="M 326.325 573 L 855 1309 L -202.351 1309 L 326.325 573 Z"/><linearGradient id="_lgradient_13" x1=".204" x2="1.053" y1=".415" y2="1.009" gradientTransform="matrix(879.055,0,0,617,-379.055,663)" gradientUnits="userSpaceOnUse"><stop offset="0%" stop-opacity="1" style="stop-color:#e64a19"/><stop offset="100%" stop-opacity="1" style="stop-color:#c62828"/></linearGradient><path fill="url(#_lgradient_13)" fill-rule="evenodd" d="M 60.473 663 L 500 1280 L -379.055 1280 L 60.473 663 Z"/><path fill="#222" fill-rule="evenodd" d="M 61.473 690 L 501 1307 L -378.055 1307 L 61.473 690 Z"/><linearGradient id="_lgradient_14" x1=".508" x2=".629" y1=".147" y2="1.013" gradientTransform="matrix(718,0,0,681,156,599)" gradientUnits="userSpaceOnUse"><stop offset="0%" stop-opacity="1" style="stop-color:#e64a19"/><stop offset="100%" stop-opacity="1" style="stop-color:#c62828"/></linearGradient><path fill="url(#_lgradient_14)" fill-rule="evenodd" d="M 515 599 L 874 1280 L 156 1280 L 515 599 Z"/><path fill="#222" fill-rule="evenodd" d="M 515 630 L 874 1311 L 156 1311 L 515 630 Z"/><linearGradient id="_lgradient_15" x1=".204" x2="1.053" y1=".415" y2="1.009" gradientTransform="matrix(1057.351,0,0,736,1224.649,544)" gradientUnits="userSpaceOnUse"><stop offset="0%" stop-opacity="1" style="stop-color:#e64a19"/><stop offset="100%" stop-opacity="1" style="stop-color:#c62828"/></linearGradient><path fill="url(#_lgradient_15)" fill-rule="evenodd" d="M 1753.325 544 L 2282 1280 L 1224.649 1280 L 1753.325 544 Z"/><path fill="#222" fill-rule="evenodd" d="M 1753.325 572 L 2282 1308 L 1224.649 1308 L 1753.325 572 Z"/><linearGradient id="_lgradient_16" x1=".204" x2="1.053" y1=".415" y2="1.009" gradientTransform="matrix(1454.423,0,0,961,213,319)" gradientUnits="userSpaceOnUse"><stop offset="0%" stop-opacity="1" style="stop-color:#e64a19"/><stop offset="100%" stop-opacity="1" style="stop-color:#c62828"/></linearGradient><path fill="url(#_lgradient_16)" fill-rule="evenodd" d="M 940.212 319 L 1667.423 1280 L 213 1280 L 940.212 319 Z"/><path fill="#222" fill-rule="evenodd" d="M 940.212 352 L 1667.423 1313 L 213 1313 L 940.212 352 Z"/><linearGradient id="_lgradient_17" x1=".204" x2="1.053" y1=".415" y2="1.009" gradientTransform="matrix(1234.055,0,0,859,678.296,421)" gradientUnits="userSpaceOnUse"><stop offset="0%" stop-opacity="1" style="stop-color:#e64a19"/><stop offset="100%" stop-opacity="1" style="stop-color:#c62828"/></linearGradient><path fill="url(#_lgradient_17)" fill-rule="evenodd" d="M 1295.323 421 L 1912.351 1280 L 678.296 1280 L 1295.323 421 Z"/><path fill="#222" fill-rule="evenodd" d="M 1295.323 451 L 1912.351 1310 L 678.296 1310 L 1295.323 451 Z"/><linearGradient id="_lgradient_18" x1=".204" x2="1.053" y1=".415" y2="1.009" gradientTransform="matrix(1057.351,0,0,736,368,832.5)" gradientUnits="userSpaceOnUse"><stop offset="0%" stop-opacity="1" style="stop-color:#e64a19"/><stop offset="100%" stop-opacity="1" style="stop-color:#c62828"/></linearGradient><path fill="url(#_lgradient_18)" fill-rule="evenodd" d="M 896.675 832.5 L 1425.351 1568.5 L 368 1568.5 L 896.675 832.5 Z"/><path fill="#222" fill-rule="evenodd" d="M 896.675 861.5 L 1425.351 1597.5 L 368 1597.5 L 896.675 861.5 Z"/><linearGradient id="_lgradient_19" x1=".204" x2="1.053" y1=".415" y2="1.009" gradientTransform="matrix(1057.351,0,0,736,855,897.5)" gradientUnits="userSpaceOnUse"><stop offset="0%" stop-opacity="1" style="stop-color:#e64a19"/><stop offset="100%" stop-opacity="1" style="stop-color:#c62828"/></linearGradient><path fill="url(#_lgradient_19)" fill-rule="evenodd" d="M 1383.675 897.5 L 1912.351 1633.5 L 855 1633.5 L 1383.675 897.5 Z"/><path fill="#222" fill-rule="evenodd" d="M 1383.675 926.5 L 1912.351 1662.5 L 855 1662.5 L 1383.675 926.5 Z"/></g></svg>